PathFileType  4	(X/Y/Z) C:\Users\antoi\Documents\MyRepositories\mobilecap\ResultsAnalysis
DataRate	CameraRate	NumFrames	NumMarkers	Units	OrigDataRate	OrigDataStartFrame	OrigNumFrames
100.0	100.0	4	51	mm	100.0	58	231
Frame#	Time	r_knee			r_shank_antsup			r_ankle			r_calc			r_5meta			r_toe			L_knee			L_shank_antsup			L_ankle			L_calc			L_5meta			L_toe			r_sh2			r_sh3			r_sh4			L_sh2			L_sh3			r_thigh1			r_thigh2			r_thigh3			r_thigh4			r_thigh5			L_thigh1			L_thigh2			L_thigh3			L_thigh4			r.ASIS			r.PSIS			L.ASIS			L.PSIS			C7			R_Shoulder			L_Shoulder			R_Sternum			L_Sternum			R_humerus			R_elbow_med			R_elbow_lat			R_forearm			R_wrist_radius			R_wrist_ulna			L_humerus			L_elbow_med			L_elbow_lat			L_forearm			L_wrist_radius			L_wrist_ulna			R_HJC			L_HJC			R_HJC_reg			L_HJC_reg			
		X1	Y1	Z1	X2	Y2	Z2	X3	Y3	Z3	X4	Y4	Z4	X5	Y5	Z5	X6	Y6	Z6	X7	Y7	Z7	X8	Y8	Z8	X9	Y9	Z9	X10	Y10	Z10	X11	Y11	Z11	X12	Y12	Z12	X13	Y13	Z13	X14	Y14	Z14	X15	Y15	Z15	X16	Y16	Z16	X17	Y17	Z17	X18	Y18	Z18	X19	Y19	Z19	X20	Y20	Z20	X21	Y21	Z21	X22	Y22	Z22	X23	Y23	Z23	X24	Y24	Z24	X25	Y25	Z25	X26	Y26	Z26	X27	Y27	Z27	X28	Y28	Z28	X29	Y29	Z29	X30	Y30	Z30	X31	Y31	Z31	X32	Y32	Z32	X33	Y33	Z33	X34	Y34	Z34	X35	Y35	Z35	X36	Y36	Z36	X37	Y37	Z37	X38	Y38	Z38	X39	Y39	Z39	X40	Y40	Z40	X41	Y41	Z41	X42	Y42	Z42	X43	Y43	Z43	X44	Y44	Z44	X45	Y45	Z45	X46	Y46	Z46	X47	Y47	Z47	X48	Y48	Z48	X49	Y49	Z49	X50	Y50	Z50	X51	Y51	Z51	

58	0.57000000	-970.53884	711.99936	-439.87656	-1000.50668	682.83231	-412.17619	-1220.38440	411.42785	-470.50661	-1290.01927	371.44951	-521.55586	-1113.77935	345.57064	-427.72390	-1069.28753	362.08783	-482.24227	-981.42624	713.35232	-734.82989	-984.89048	625.70248	-743.18964	-1224.33639	412.96808	-703.01283	-1295.84070	375.59219	-653.53868	-1120.99475	349.28875	-730.36890	-1074.05549	363.63613	-675.90971	-1069.92885	590.18877	-410.07410	-943.49783	647.88147	-450.10239	-1013.77501	557.93063	-466.33331	-1047.58228	688.58933	-754.67454	-1125.31799	593.99842	-748.48803	-1081.64120	974.24228	-382.76564	-1022.79492	875.37990	-383.32400	-972.55944	884.38709	-407.79044	-1029.80745	1002.90989	-478.82149	-964.86698	914.10066	-468.44607	-1096.39313	1006.85718	-752.17156	-1033.20673	878.93849	-763.11915	-1196.63674	957.14295	-743.63622	-1133.37090	832.61857	-723.62986	-1057.51380	1093.55958	-448.17744	-1219.68489	1203.62286	-617.96714	-1070.95681	1071.75089	-677.84764	-1216.74885	1205.79781	-521.30339	-857.45450	1529.09811	-598.11758	-808.27909	1444.92867	-439.88187	-835.07137	1426.11967	-750.27018	-827.96950	1384.39299	-576.40762	-831.28228	1379.77493	-606.36316	-863.86258	1226.68126	-349.75960	-947.33609	1143.50321	-371.37074	-905.86469	1142.55609	-317.90084	-830.45006	1018.60866	-332.13576	-777.95866	935.59731	-366.21503	-809.41387	917.44859	-342.03608	-894.92873	1211.37252	-828.32934	-966.14639	1114.17308	-791.61405	-938.86928	1114.67000	-843.70996	-875.75459	983.11141	-839.78400	-829.06922	894.21884	-808.67097	-867.67955	874.35602	-821.39614	-1162.56626	1054.25954	-471.86452	-1180.06177	1051.04165	-661.70437	-1065.89146	1179.21111	-648.75501	-1061.26161	1182.63956	-496.34145	
59	0.58000000	-966.23602	709.45708	-439.76504	-996.24137	680.02983	-412.60541	-1219.74844	411.46040	-470.67183	-1289.73654	372.12804	-521.93718	-1113.72127	345.44155	-427.69228	-1069.03239	361.67604	-482.22363	-976.19909	709.57890	-732.90565	-981.09866	622.51927	-741.79301	-1223.63036	413.43187	-702.90803	-1295.85835	376.81690	-653.13004	-1120.93829	349.19638	-730.42176	-1074.03433	363.14946	-675.91842	-1066.75329	588.01278	-410.84395	-939.70863	644.54892	-450.63759	-1011.08718	555.33847	-466.93801	-1043.11516	686.02444	-752.86260	-1121.84907	592.60714	-747.85968	-1075.79991	971.61728	-382.70139	-1017.70982	872.51221	-383.71874	-967.05797	881.44309	-407.43277	-1023.26687	1000.15782	-478.35105	-959.66005	909.80590	-469.15932	-1090.07972	1004.39946	-751.62184	-1027.39646	876.33327	-762.08186	-1190.59254	955.41141	-743.13100	-1127.95999	830.65925	-723.01832	-1051.71733	1092.30701	-447.70674	-1214.44090	1201.52515	-617.87649	-1064.71364	1070.38817	-677.06845	-1211.67809	1203.77991	-521.24444	-855.85402	1530.48601	-597.46442	-805.13150	1448.00208	-440.11560	-831.06652	1428.25131	-748.76946	-824.45021	1386.41827	-575.36064	-827.63747	1381.85635	-605.36452	-848.43310	1227.98369	-351.05458	-926.07242	1138.48886	-373.20083	-883.99024	1140.44962	-319.98990	-793.74577	1027.57291	-340.03340	-730.90278	954.55801	-377.39703	-759.82313	930.45293	-355.55184	-880.64735	1212.38999	-827.12351	-945.14973	1109.65487	-789.72904	-918.18640	1112.02249	-842.55258	-838.46056	988.91874	-832.28926	-780.74912	909.34095	-797.06766	-815.82616	883.64903	-808.71698	-1156.66784	1052.53605	-471.48311	-1173.75059	1049.05942	-661.35579	-1060.35543	1177.79208	-648.08884	-1056.00389	1181.34491	-495.88233	
60	0.59000000	-962.28765	706.87734	-439.85838	-992.80726	677.67746	-412.85596	-1218.52412	409.68282	-471.20444	-1289.48039	372.61666	-522.17467	-1113.69667	345.30140	-427.78504	-1068.80626	361.33449	-482.22481	-971.77317	706.33663	-730.03628	-977.74323	619.62232	-740.59995	-1223.03044	413.82950	-702.71303	-1295.88759	377.59009	-652.65391	-1120.87965	349.09962	-730.40347	-1074.05187	362.64523	-675.86605	-1064.00283	586.01635	-411.63180	-936.35792	641.34935	-451.23114	-1008.69375	553.01944	-467.50130	-1039.17516	683.22429	-750.82560	-1118.91241	591.24984	-747.12898	-1069.60115	969.47372	-382.77755	-1012.56111	869.89801	-384.20040	-961.70674	878.29996	-407.78847	-1016.62855	997.84544	-478.05170	-954.07785	906.56895	-469.52467	-1083.17976	1002.55274	-751.30398	-1021.68403	873.78834	-761.57915	-1184.21668	954.43291	-742.50424	-1122.60372	829.30348	-722.66587	-1045.43552	1091.74611	-447.30952	-1208.59284	1200.20496	-617.67778	-1057.88134	1069.72382	-676.41504	-1206.02337	1202.59676	-521.28146	-854.16611	1533.05111	-596.75304	-801.70128	1452.66469	-440.44990	-826.72662	1431.93845	-747.24502	-820.65095	1389.58994	-574.22350	-823.78125	1384.98365	-604.42490	-832.32467	1231.48882	-352.53596	-903.68510	1136.01693	-375.23722	-861.11468	1141.07522	-322.14082	-757.49822	1041.67755	-348.00768	-685.70824	980.52962	-388.55094	-711.22994	950.59011	-369.18792	-866.42413	1215.33062	-825.91361	-923.68611	1107.63513	-787.35011	-897.22302	1111.79003	-841.18584	-801.47081	1000.08249	-824.25563	-733.44416	931.67074	-785.06639	-764.46067	900.74500	-795.69973	-1150.26699	1051.52839	-471.19738	-1166.91103	1047.90503	-661.10592	-1054.16622	1177.02336	-647.60536	-1050.11388	1180.79737	-495.57744	
61	0.60000000	-958.75689	704.26421	-440.33804	-989.68480	675.44090	-413.45992	-1217.51395	408.40617	-471.86860	-1289.24557	373.00753	-522.28582	-1113.64636	345.21587	-427.82792	-1068.61307	361.02374	-482.19998	-967.87025	704.16740	-727.27544	-974.91191	617.43042	-739.71088	-1222.48705	414.17716	-702.36133	-1295.69783	378.04845	-652.38134	-1120.80929	349.01528	-730.30976	-1073.93919	362.23978	-675.82659	-1061.60795	584.21666	-412.49437	-933.45501	638.38701	-451.83849	-1006.53951	550.79764	-468.19331	-1035.52919	681.12987	-749.22485	-1116.48371	590.12368	-746.19934	-1063.08928	967.91497	-383.03270	-1007.26932	867.67684	-384.47087	-956.32449	875.33402	-408.16384	-1009.71756	996.09454	-477.56822	-948.21792	904.17766	-469.46481	-1075.62715	1001.16582	-750.31021	-1015.83795	871.70003	-760.76046	-1177.40565	954.37560	-741.93977	-1117.31433	828.50891	-721.74877	-1038.59902	1092.29198	-446.28981	-1202.10714	1199.85213	-617.24311	-1050.20553	1070.24032	-676.70753	-1199.65253	1201.96934	-520.93994	-852.34612	1536.78785	-596.07798	-797.95452	1459.10607	-441.03837	-822.11660	1437.49520	-745.70214	-816.49044	1393.93467	-573.04420	-819.60269	1389.24174	-603.39455	-815.61647	1237.40718	-354.15868	-880.42428	1136.34658	-377.79726	-837.41380	1144.81910	-324.21902	-722.31377	1060.95608	-355.85528	-643.77007	1012.95040	-399.71738	-664.72323	978.32154	-382.03231	-852.10028	1220.27039	-824.55613	-901.89487	1108.20627	-785.09621	-875.90520	1114.00342	-839.41290	-765.53660	1016.82263	-816.12927	-688.25778	961.11012	-773.09220	-715.05559	925.54285	-782.61543	-1143.02427	1051.27330	-470.99628	-1159.20672	1047.80780	-660.94834	-1047.34059	1178.10110	-647.37807	-1043.44278	1181.45520	-494.50401	
